<svg style="object-fit:cover" id="my-svg" version="1" baseProfile="full" width="100%" height="100%" viewBox="0 0 1280 581" xmlns="http://www.w3.org/2000/svg"><rect width="1280" height="581" fill="#000"/><defs><linearGradient id="linear-gradient" x1="0" x2="1" y1="0" y2="1"><stop offset="0%" stop-color="#c81d1190"/><stop offset="100%" stop-color="#1c39bb90"/></linearGradient></defs><path transform="scale(1, 1)" style="transform-origin:center" d="M 0,581 V 0,281 C 126.66666666666666,295.0357142857143 253.33333333333331,309.07142857142856 368,333 C 482.6666666666667,356.92857142857144 585.3333333333334,390.75000000000006 679,386 C 772.6666666666666,381.24999999999994 857.3333333333335,337.92857142857144 956,314 C 1054.6666666666665,290.07142857142856 1167.3333333333333,285.5357142857143 1280,281 C 1280,281 1280,581 1280,581 Z" stroke="none" stroke-width="0" fill="url(#linear-gradient)" class="transition-all duration-300 ease-in-out delay-150"/><defs><linearGradient id="linear-gradient" x1="0" x2="1" y1="0" y2="1"><stop offset="0%" stop-color="#c81d11ff"/><stop offset="100%" stop-color="#1c39bbff"/></linearGradient></defs><path transform="scale(1, 1)" style="transform-origin:center" d="M 0,581 V 0,421 C 124.66666666666666,448.2857142857143 249.33333333333331,475.57142857142856 340,487 C 430.6666666666667,498.42857142857144 487.33333333333337,493.99999999999994 592,473 C 696.6666666666666,452.00000000000006 849.3333333333333,414.42857142857144 972,403 C 1094.6666666666667,391.57142857142856 1187.3333333333335,406.2857142857143 1280,421 C 1280,421 1280,581 1280,581 Z" stroke="none" stroke-width="0" fill="url(#linear-gradient)" class="transition-all duration-300 ease-in-out delay-150"/></svg>