<svg id="visual" viewBox="0 0 900 600" width="900" height="600" xmlns="http://www.w3.org/2000/svg" xmlns:xlink="http://www.w3.org/1999/xlink" version="1.1"><rect x="0" y="0" width="900" height="600" fill="#ffffff"></rect><defs><linearGradient id="grad1_0" x1="33.3%" y1="0%" x2="100%" y2="100%"><stop offset="20%" stop-color="#ffffff" stop-opacity="1"></stop><stop offset="80%" stop-color="#ffffff" stop-opacity="1"></stop></linearGradient></defs><defs><linearGradient id="grad2_0" x1="0%" y1="0%" x2="66.7%" y2="100%"><stop offset="20%" stop-color="#ffffff" stop-opacity="1"></stop><stop offset="80%" stop-color="#ffffff" stop-opacity="1"></stop></linearGradient></defs><g transform="translate(900, 0)"><path d="M0 243.4C-30.2 234.1 -60.4 224.9 -88 212.5C-115.6 200.1 -140.7 184.5 -164.8 164.8C-188.8 145.1 -211.9 121.3 -224.8 93.1C-237.8 65 -240.6 32.5 -243.4 0L0 0Z" fill="#8579F2"></path></g><g transform="translate(0, 600)"><path d="M0 -243.4C26.4 -228.7 52.7 -214 85 -205.1C117.2 -196.2 155.2 -193.2 172.1 -172.1C189 -151 184.7 -111.7 193.1 -80C201.4 -48.3 222.4 -24.1 243.4 0L0 0Z" fill="#8579F2"></path></g></svg>