<!--?xml version="1.0" standalone="no"?-->
              <svg id="sw-js-blob-svg" viewBox="0 0 100 100" xmlns="http://www.w3.org/2000/svg" version="1.1">
                    <defs> 
                        <linearGradient id="sw-gradient" x1="0" x2="1" y1="1" y2="0">
                            <stop id="stop1" stop-color="rgba(103.381, 55, 248, 1)" offset="0%"></stop>
                            <stop id="stop2" stop-color="rgba(41.955, 40.408, 37.856, 1)" offset="100%"></stop>
                        </linearGradient>
                    </defs>
                <path fill="url(#sw-gradient)" d="M24.9,-38.1C32.4,-33.8,38.8,-27.3,42.4,-19.4C46,-11.5,46.7,-2.3,44,5.3C41.2,12.9,35.1,19,29.1,24.5C23.2,30,17.4,35,10.8,36.9C4.2,38.9,-3.3,37.8,-11.4,36.5C-19.5,35.2,-28.2,33.6,-33.4,28.4C-38.6,23.3,-40.3,14.7,-40,6.7C-39.7,-1.3,-37.4,-8.7,-34.8,-16.6C-32.2,-24.5,-29.4,-32.9,-23.6,-37.9C-17.7,-43,-8.9,-44.6,-0.1,-44.4C8.7,-44.3,17.3,-42.4,24.9,-38.1Z" width="100%" height="100%" transform="translate(50 50)" stroke-width="0" style="transition: all 0.3s ease 0s;" stroke="url(#sw-gradient)"></path>
              </svg>