<svg id="visual" viewBox="0 0 900 600" width="900" height="600" xmlns="http://www.w3.org/2000/svg" xmlns:xlink="http://www.w3.org/1999/xlink" version="1.1"><rect x="0" y="0" width="900" height="600" fill="#E8EAEC"></rect><defs><linearGradient id="grad1_0" x1="33.3%" y1="0%" x2="100%" y2="100%"><stop offset="20%" stop-color="#e8eaec" stop-opacity="1"></stop><stop offset="80%" stop-color="#e8eaec" stop-opacity="1"></stop></linearGradient></defs><defs><linearGradient id="grad2_0" x1="0%" y1="0%" x2="66.7%" y2="100%"><stop offset="20%" stop-color="#e8eaec" stop-opacity="1"></stop><stop offset="80%" stop-color="#e8eaec" stop-opacity="1"></stop></linearGradient></defs><g transform="translate(900, 0)"><path d="M0 243.4C-28.3 232.3 -56.6 221.3 -87.6 211.6C-118.7 201.8 -152.4 193.4 -172.1 172.1C-191.8 150.8 -197.4 116.6 -206.9 85.7C-216.5 54.9 -229.9 27.4 -243.4 0L0 0Z" fill="#8B5BF6"></path></g><g transform="translate(0, 600)"><path d="M0 -243.4C29.9 -235.5 59.8 -227.5 89.9 -217.1C120.1 -206.7 150.4 -193.7 172.1 -172.1C193.7 -150.4 206.7 -120.1 217.1 -89.9C227.5 -59.8 235.5 -29.9 243.4 0L0 0Z" fill="#8B5BF6"></path></g></svg>